<svg xmlns="http://www.w3.org/2000/svg" version="1.1" xmlns:xlink="http://www.w3.org/1999/xlink" xmlns:svgjs="http://svgjs.com/svgjs" width="2000" height="1000" preserveAspectRatio="none" viewBox="0 0 2000 1000">
    <g mask="url(&quot;#SvgjsMask1000&quot;)" fill="none">
        <rect width="2000" height="1000" x="0" y="0" fill="#0e2a47"></rect>
        <path d="M1411.678,977.704C1444.197,978.02,1469.305,952.44,1485.242,924.092C1500.803,896.413,1506.868,863.315,1491.655,835.444C1475.851,806.491,1444.657,788.713,1411.678,789.319C1379.668,789.907,1351.697,810.043,1336.631,838.291C1322.427,864.924,1326.241,896.108,1340.548,922.686C1355.776,950.975,1379.553,977.392,1411.678,977.704" fill="rgba(28, 83, 142, 0.4)" class="triangle-float2"></path>
        <path d="M1480.59 790.01 a263.59 263.59 0 1 0 527.18 0 a263.59 263.59 0 1 0 -527.18 0z" fill="rgba(28, 83, 142, 0.4)" class="triangle-float1"></path>
        <path d="M270.092,968.611C340.937,966.424,414.184,950.629,452.738,891.153C494.512,826.711,497.769,742.93,459.577,676.303C421.192,609.34,347.275,572.972,270.092,572.525C192.074,572.073,117.637,607.628,76.766,674.085C33.87,743.835,21.877,834.612,66.811,903.067C108.684,966.859,193.821,970.966,270.092,968.611" fill="rgba(28, 83, 142, 0.4)" class="triangle-float2"></path>
        <path d="M1030.485,881.364C1078.995,881.908,1121.318,849.804,1144.074,806.959C1165.466,766.682,1161.481,718.392,1137.718,679.467C1114.972,642.208,1074.135,621.432,1030.485,620.895C985.802,620.345,941.437,638.372,918.582,676.771C895.245,715.979,899.329,764.428,921.224,804.459C944.13,846.339,982.753,880.829,1030.485,881.364" fill="rgba(28, 83, 142, 0.4)" class="triangle-float2"></path>
        <path d="M1289.21 136.14 a315.79 315.79 0 1 0 631.58 0 a315.79 315.79 0 1 0 -631.58 0z" fill="rgba(28, 83, 142, 0.4)" class="triangle-float1"></path>
        <path d="M1007.586,1057.638C1063.926,1057.601,1113.18,1024.283,1142.68,976.284C1173.824,925.611,1187.552,863.032,1159.39,810.644C1129.904,755.794,1069.843,723.588,1007.586,724.981C947.569,726.324,895.57,764.326,867.111,817.184C840.122,867.312,843.471,927.301,872.189,976.459C900.64,1025.158,951.185,1057.675,1007.586,1057.638" fill="rgba(28, 83, 142, 0.4)" class="triangle-float3"></path>
        <path d="M664.926,354.724C755.703,362.441,856.441,334.463,899.201,254.017C940.383,176.54,890.719,89.704,845.884,14.282C802.462,-58.764,749.904,-140.335,664.926,-140.086C580.198,-139.838,522.742,-60.911,485.796,15.337C454.012,80.932,456.765,154.835,490.788,219.297C527.576,288.997,586.396,348.048,664.926,354.724" fill="rgba(28, 83, 142, 0.4)" class="triangle-float2"></path>
        <path d="M660.34 51.93 a238.03 238.03 0 1 0 476.06 0 a238.03 238.03 0 1 0 -476.06 0z" fill="rgba(28, 83, 142, 0.4)" class="triangle-float2"></path>
        <path d="M841.861,574.219C886.936,575.398,916.706,532.618,938.658,493.232C959.85,455.209,974.59,410.94,954.345,372.404C932.889,331.563,887.947,306.878,841.861,308.985C798.837,310.952,764.924,343.302,745.887,381.935C729.034,416.135,736.429,454.273,753.456,488.387C773.116,527.775,797.854,573.068,841.861,574.219" fill="rgba(28, 83, 142, 0.4)" class="triangle-float1"></path>
    </g>
    <defs>
        <mask id="SvgjsMask1000">
            <rect width="2000" height="1000" fill="#ffffff"></rect>
        </mask>
        <style>
            @keyframes float1 {
                0%{transform: translate(0, 0)}
                50%{transform: translate(-10px, 0)}
                100%{transform: translate(0, 0)}
            }

            .triangle-float1 {
                animation: float1 5s infinite;
            }

            @keyframes float2 {
                0%{transform: translate(0, 0)}
                50%{transform: translate(-5px, -5px)}
                100%{transform: translate(0, 0)}
            }

            .triangle-float2 {
                animation: float2 4s infinite;
            }

            @keyframes float3 {
                0%{transform: translate(0, 0)}
                50%{transform: translate(0, -10px)}
                100%{transform: translate(0, 0)}
            }

            .triangle-float3 {
                animation: float3 6s infinite;
            }
        </style>
    </defs>
</svg>